<?xml version="1.0" encoding="UTF-8" standalone="no"?>
<!DOCTYPE svg PUBLIC "-//W3C//DTD SVG 1.1//EN" "http://www.w3.org/Graphics/SVG/1.1/DTD/svg11.dtd">
<!-- 由 Microsoft Visio, SVG Export 生成 ftrace_stub.svg 页-1 -->
<svg xmlns="http://www.w3.org/2000/svg" xmlns:xlink="http://www.w3.org/1999/xlink" xmlns:ev="http://www.w3.org/2001/xml-events"
		xmlns:v="http://schemas.microsoft.com/visio/2003/SVGExtensions/" width="9.20689in" height="4.99244in"
		viewBox="0 0 662.896 359.456" xml:space="preserve" color-interpolation-filters="sRGB" class="st15">
	<title>UML 2.5</title>
	<desc>A template for all diagrams of UML 2.5 and earlier versions.
For help and latest version of the template
please visit http://softwarestencils.com. 
Template version: 27. December 2013. 
Known issues: The &#34;hand-drawn&#34; themes and the &#34;shady&#34; theme may have &#34;desctructive&#34; effect on some shapes.</desc>
	<v:documentProperties v:langID="1033" v:metric="true" v:viewMarkup="false"/>

	<style type="text/css">
	<![CDATA[
		.st1 {fill:#ffffff}
		.st2 {stroke:#000000;stroke-linecap:round;stroke-linejoin:round;stroke-width:0.24;visibility:hidden}
		.st3 {fill:#000000;font-family:Calibri;font-size:0.666664em}
		.st4 {stroke:#000000;stroke-linecap:round;stroke-linejoin:round;stroke-width:0.24}
		.st5 {marker-end:url(#mrkr12-35);marker-start:url(#mrkr12-33);stroke:#000000;stroke-linecap:round;stroke-linejoin:round;stroke-width:0.24}
		.st6 {fill:#000000;fill-opacity:1;stroke:#000000;stroke-opacity:1;stroke-width:0.08695652173913}
		.st7 {fill:#ffffff;stroke:none;stroke-linecap:butt;stroke-width:7.2}
		.st8 {font-size:1em}
		.st9 {font-family:Microsoft Sans Serif;font-size:1em}
		.st10 {fill:#000000;font-family:Calibri;font-size:0.666664em;font-weight:bold}
		.st11 {marker-end:url(#mrkr12-35);stroke:#000000;stroke-linecap:round;stroke-linejoin:round;stroke-width:0.24}
		.st12 {stroke:#000000;stroke-dasharray:1.68,1.2;stroke-linecap:round;stroke-linejoin:round;stroke-width:0.24}
		.st13 {fill:none;stroke:none;stroke-linecap:round;stroke-linejoin:round;stroke-width:0.75}
		.st14 {fill:#ff0000;font-family:Calibri;font-size:0.666664em;font-weight:bold}
		.st15 {fill:none;fill-rule:evenodd;font-size:12px;overflow:visible;stroke-linecap:square;stroke-miterlimit:3}
	]]>
	</style>

	<defs id="Markers">
		<g id="lend12">
			<path d="M 3 1 L 0 0 L 3 -1 " style="stroke-linecap:round;stroke-linejoin:round;fill:none"/>
		</g>
		<marker id="mrkr12-33" class="st6" v:arrowType="12" v:arrowSize="2" orient="auto" markerUnits="strokeWidth"
				overflow="visible">
			<use xlink:href="#lend12" transform="scale(11.5) "/>
		</marker>
		<marker id="mrkr12-35" class="st6" v:arrowType="12" v:arrowSize="2" orient="auto" markerUnits="strokeWidth"
				overflow="visible">
			<use xlink:href="#lend12" transform="scale(-11.5,-11.5) "/>
		</marker>
	</defs>
	<g v:mID="0" v:index="1" v:groupContext="foregroundPage">
		<title>页-1</title>
		<v:pageProperties v:drawingScale="1" v:pageScale="1" v:drawingUnits="19" v:shadowOffsetX="9" v:shadowOffsetY="-9"/>
		<g id="group1-1" transform="translate(134.728,-265.228)" v:mID="1" v:groupContext="group">
			<v:userDefs>
				<v:ud v:nameU="F" v:val="VT0(1):26"/>
				<v:ud v:nameU="Format" v:val="VT0(0):26"/>
				<v:ud v:nameU="ActiveObject" v:prompt="0,0626" v:val="VT0(0):26"/>
			</v:userDefs>
			<title>Class</title>
			<g id="shape2-2" v:mID="2" v:groupContext="shape" transform="translate(72,5.68434E-014)">
				<title>工作表.2</title>
				<path d="M0 359.46 L0 287.46 L0 359.46 Z" class="st1"/>
			</g>
			<g id="shape3-5" v:mID="3" v:groupContext="shape">
				<title>工作表.3</title>
				<desc>...</desc>
				<v:textBlock v:margins="rect(4,4,4,4)"/>
				<v:textRect cx="36" cy="350.456" width="72" height="18"/>
				<rect x="0" y="341.456" width="72" height="18" class="st1"/>
				<rect x="0" y="341.456" width="72" height="18" class="st2"/>
				<text x="32.97" y="352.86" class="st3" v:langID="2052"><v:paragraph v:horizAlign="1"/><v:tabList/>...</text>			</g>
			<g id="shape4-9" v:mID="4" v:groupContext="shape" transform="translate(0,-18)">
				<title>工作表.4</title>
				<desc>...</desc>
				<v:textBlock v:margins="rect(4,4,4,4)"/>
				<v:textRect cx="36" cy="350.456" width="72" height="18"/>
				<rect x="0" y="341.456" width="72" height="18" class="st1"/>
				<rect x="0" y="341.456" width="72" height="18" class="st2"/>
				<text x="32.97" y="352.86" class="st3" v:langID="2052"><v:paragraph v:horizAlign="1"/><v:tabList/>...</text>			</g>
			<g id="shape5-13" v:mID="5" v:groupContext="shape" transform="translate(0,-36)">
				<title>工作表.5</title>
				<desc>addr2</desc>
				<v:textBlock v:margins="rect(4,4,4,4)"/>
				<v:textRect cx="36" cy="350.456" width="72" height="18"/>
				<rect x="0" y="341.456" width="72" height="18" class="st1"/>
				<rect x="0" y="341.456" width="72" height="18" class="st2"/>
				<text x="26.46" y="352.86" class="st3" v:langID="2052"><v:paragraph v:horizAlign="1"/><v:tabList/>addr2</text>			</g>
			<g id="shape6-17" v:mID="6" v:groupContext="shape" transform="translate(0,-54)">
				<title>工作表.6</title>
				<desc>addr1</desc>
				<v:userDefs>
					<v:ud v:nameU="TabSize" v:val="VT0(0.125):0"/>
				</v:userDefs>
				<v:textBlock v:margins="rect(4,4,4,4)"/>
				<v:textRect cx="36" cy="350.456" width="72" height="18"/>
				<path d="M72 359.46 L72 341.46 L0 341.46 L0 359.46 L72 359.46 ZM0 413.46 L0 341.46 L0 413.46 ZM72 341.46 L72 413.46
							 L72 341.46 Z" class="st1"/>
				<path d="M72 413.46 L72 341.46" class="st4"/>
				<path d="M0 413.46 L0 341.46" class="st4"/>
				<path d="M0 341.46 L72 341.46" class="st4"/>
				<path d="M0 359.46 L72 359.46" class="st4"/>
				<path d="M0 377.46 L72 377.46" class="st4"/>
				<path d="M0 395.46 L72 395.46" class="st4"/>
				<path d="M0 413.46 L72 413.46" class="st4"/>
				<text x="26.46" y="352.86" class="st3" v:langID="2052"><v:paragraph v:horizAlign="1"/><v:tabList/>addr1</text>			</g>
		</g>
		<g id="shape7-27" v:mID="7" v:groupContext="shape" transform="translate(-170.728,94.2279) rotate(-90)">
			<title>Duration (vertical)</title>
			<desc>__mcount_loc</desc>
			<v:userDefs>
				<v:ud v:nameU="MarkSize" v:val="VT0(0.0625):26"/>
				<v:ud v:nameU="Extension_Lines" v:val="VT0(0):26"/>
			</v:userDefs>
			<v:textBlock v:margins="rect(4,4,4,4)"/>
			<v:textRect cx="36" cy="278.456" width="56.29" height="17.6036" transform="rotate(90)"/>
			<path d="M0 282.96 L0 291.96 L0 282.96 ZM72 282.96 L72 291.96 L72 282.96 Z" class="st1"/>
			<path d="M0 287.46 L72 287.46" class="st5"/>
			<path d="M0 282.96 L0 291.96" class="st4"/>
			<path d="" class="st4"/>
			<path d="M72 282.96 L72 291.96" class="st4"/>
			<path d="" class="st4"/>
			<rect v:rectContext="textBkgnd" x="255.222" y="-40.7997" width="46.4683" height="9.59985" transform="rotate(90)"
					class="st7"/>
			<text x="255.22" y="-33.6" transform="rotate(90)" class="st3" v:langID="2052"><v:paragraph v:horizAlign="1"/><v:tabList/>__mcount_loc</text>		</g>
		<g id="group8-42" transform="translate(22.2279,-96.4779)" v:mID="8" v:groupContext="group">
			<v:userDefs>
				<v:ud v:nameU="F" v:val="VT0(1):26"/>
				<v:ud v:nameU="Format" v:val="VT0(0):26"/>
				<v:ud v:nameU="ActiveObject" v:prompt="0,0626" v:val="VT0(0):26"/>
			</v:userDefs>
			<title>Class.8</title>
			<g id="shape9-43" v:mID="9" v:groupContext="shape" transform="translate(94.5,5.68434E-014)">
				<title>工作表.9</title>
				<path d="M0 359.46 L0 255.96 L0 359.46 Z" class="st1"/>
			</g>
			<g id="shape10-46" v:mID="10" v:groupContext="shape">
				<title>工作表.10</title>
				<path d="M94.5 359.46 L0 359.46 L94.5 359.46 Z" class="st1"/>
			</g>
			<g id="shape11-49" v:mID="11" v:groupContext="shape">
				<title>工作表.11</title>
				<path d="M94.5 359.46 L0 359.46 L94.5 359.46 Z" class="st1"/>
			</g>
			<g id="shape12-52" v:mID="12" v:groupContext="shape">
				<title>工作表.12</title>
				<desc>stp x29, x30, [sp,#-304]! mov x29, sp … call _mcount ...</desc>
				<v:textBlock v:margins="rect(4,4,4,4)" v:verticalAlign="0"/>
				<v:textRect cx="47.25" cy="316.706" width="94.5" height="85.5"/>
				<rect x="0" y="273.956" width="94.5" height="85.5" class="st1"/>
				<rect x="0" y="273.956" width="94.5" height="85.5" class="st2"/>
				<text x="4" y="285.34" class="st3" v:langID="1033"><v:paragraph/><v:tabList/>stp     x29, x30, [sp,#-304]!<v:newlineChar/><tspan
							x="4" dy="1.231em" class="st8">mov     x</tspan>29, sp <v:newlineChar/><tspan x="4" dy="1.208em"
							class="st9" v:langID="2052">…<v:newlineChar/></tspan><tspan x="4" dy="1.2em" class="st9"
							v:langID="2052">call </tspan><tspan class="st9" v:langID="2052">_</tspan><tspan class="st9"
							v:langID="2052">mcount<v:newlineChar/></tspan><tspan x="4" dy="1.2em" class="st9" v:langID="2052">...</tspan></text>			</g>
			<g id="shape13-62" v:mID="13" v:groupContext="shape" transform="translate(0,-85.5)">
				<title>工作表.13</title>
				<desc>printk</desc>
				<v:userDefs>
					<v:ud v:nameU="TabSize" v:val="VT0(0.125):0"/>
				</v:userDefs>
				<v:textBlock v:margins="rect(4,4,4,4)"/>
				<v:textRect cx="47.25" cy="350.456" width="94.5" height="18"/>
				<path d="M94.5 359.46 L94.5 341.46 L0 341.46 L0 359.46 L94.5 359.46 ZM0 444.96 L0 341.46 L0 444.96 ZM94.5 341.46
							 L94.5 444.96 L94.5 341.46 Z" class="st1"/>
				<path d="M94.5 444.96 L94.5 341.46" class="st4"/>
				<path d="M0 444.96 L0 341.46" class="st4"/>
				<path d="M0 341.46 L94.5 341.46" class="st4"/>
				<path d="M0 359.46 L94.5 359.46" class="st4"/>
				<path d="M0 444.96 L94.5 444.96" class="st4"/>
				<text x="37.25" y="352.86" class="st10" v:langID="2052"><v:paragraph v:horizAlign="1"/><v:tabList/>printk</text>			</g>
		</g>
		<g id="group14-70" transform="translate(166.228,-98.7279)" v:mID="14" v:groupContext="group">
			<v:userDefs>
				<v:ud v:nameU="F" v:val="VT0(1):26"/>
				<v:ud v:nameU="Format" v:val="VT0(0):26"/>
				<v:ud v:nameU="ActiveObject" v:prompt="0,0626" v:val="VT0(0):26"/>
			</v:userDefs>
			<title>Class.14</title>
			<g id="shape15-71" v:mID="15" v:groupContext="shape" transform="translate(103.5,5.68434E-014)">
				<title>工作表.15</title>
				<path d="M0 359.46 L0 255.96 L0 359.46 Z" class="st1"/>
			</g>
			<g id="shape16-74" v:mID="16" v:groupContext="shape">
				<title>工作表.16</title>
				<path d="M103.5 359.46 L0 359.46 L103.5 359.46 Z" class="st1"/>
			</g>
			<g id="shape17-77" v:mID="17" v:groupContext="shape">
				<title>工作表.17</title>
				<path d="M103.5 359.46 L0 359.46 L103.5 359.46 Z" class="st1"/>
			</g>
			<g id="shape18-80" v:mID="18" v:groupContext="shape">
				<title>工作表.18</title>
				<desc>sub sp, sp, #0x200 stp x29, x30, [sp,#-16]! … call _mcount ...</desc>
				<v:textBlock v:margins="rect(4,4,4,4)" v:verticalAlign="0"/>
				<v:textRect cx="51.75" cy="316.706" width="103.5" height="85.5"/>
				<rect x="0" y="273.956" width="103.5" height="85.5" class="st1"/>
				<rect x="0" y="273.956" width="103.5" height="85.5" class="st2"/>
				<text x="4" y="285.34" class="st3" v:langID="1033"><v:paragraph/><v:tabList/>sub     sp, sp, #0x200<v:newlineChar/><tspan
							x="4" dy="1.231em" class="st8">stp     x</tspan>29, x30, [sp,#-16]!<v:newlineChar/><tspan x="4"
							dy="1.208em" class="st9" v:langID="2052">…<v:newlineChar/></tspan><tspan x="4" dy="1.2em" class="st9"
							v:langID="2052">call </tspan><tspan class="st9" v:langID="2052">_</tspan><tspan class="st9"
							v:langID="2052">mcount<v:newlineChar/></tspan><tspan x="4" dy="1.2em" class="st9" v:langID="2052">...</tspan></text>			</g>
			<g id="shape19-90" v:mID="19" v:groupContext="shape" transform="translate(0,-85.5)">
				<title>工作表.19</title>
				<desc>do_fork</desc>
				<v:userDefs>
					<v:ud v:nameU="TabSize" v:val="VT0(0.125):0"/>
				</v:userDefs>
				<v:textBlock v:margins="rect(4,4,4,4)"/>
				<v:textRect cx="51.75" cy="350.456" width="103.5" height="18"/>
				<path d="M103.5 359.46 L103.5 341.46 L0 341.46 L0 359.46 L103.5 359.46 ZM0 444.96 L0 341.46 L0 444.96 ZM103.5 341.46
							 L103.5 444.96 L103.5 341.46 Z" class="st1"/>
				<path d="M103.5 444.96 L103.5 341.46" class="st4"/>
				<path d="M0 444.96 L0 341.46" class="st4"/>
				<path d="M0 341.46 L103.5 341.46" class="st4"/>
				<path d="M0 359.46 L103.5 359.46" class="st4"/>
				<path d="M0 444.96 L103.5 444.96" class="st4"/>
				<text x="38.7" y="352.86" class="st10" v:langID="2052"><v:paragraph v:horizAlign="1"/><v:tabList/>do_fork</text>			</g>
		</g>
		<g id="group23-98" transform="translate(148.228,-328.228)" v:mID="23" v:groupContext="group">
			<v:userDefs>
				<v:ud v:nameU="BeginAngle" v:prompt="reserved for future use" v:val="VT0(2):26"/>
				<v:ud v:nameU="EndAngle" v:prompt="reserved for future use" v:val="VT0(2):26"/>
				<v:ud v:nameU="RealBeginX" v:val="VT0(0):32"/>
				<v:ud v:nameU="RealBeginY" v:val="VT0(0):32"/>
				<v:ud v:nameU="EndX" v:val="VT0(-5.5511151231258E-017):1"/>
				<v:ud v:nameU="EndY" v:val="VT0(-0.125):1"/>
				<v:ud v:nameU="Row_7" v:val="VT0(-1):1"/>
				<v:ud v:nameU="BeginY" v:val="VT0(-0.125):1"/>
				<v:ud v:nameU="RealBeginX" v:prompt="" v:val="VT0(1.5707963267949):32"/>
				<v:ud v:nameU="EndY" v:prompt="" v:val="VT0(0):1"/>
				<v:ud v:nameU="Row_7" v:prompt="" v:val="VT0(1.75):1"/>
				<v:ud v:nameU="BeginY" v:prompt="" v:val="VT0(2.5625):1"/>
			</v:userDefs>
			<title>Transition, Edge</title>
			<g id="shape24-99" v:mID="24" v:groupContext="shape" transform="translate(-126,191.988)">
				<title>Straight Edge.28</title>
				<desc>N</desc>
				<v:userDefs>
					<v:ud v:nameU="SetSize" v:val="VT0(0):26"/>
				</v:userDefs>
				<v:textBlock v:margins="rect(4,4,4,4)"/>
				<v:textRect cx="7.48817" cy="351.968" width="14.98" height="17.6036"/>
			</g>
			<g id="shape25-102" v:mID="25" v:groupContext="shape" transform="translate(-351.968,374.432) rotate(-90)">
				<title>Straight Edge.29</title>
				<desc>N</desc>
				<v:userDefs>
					<v:ud v:nameU="SetSize" v:val="VT0(0):26"/>
				</v:userDefs>
				<v:textBlock v:margins="rect(4,4,4,4)"/>
				<v:textRect cx="7.48817" cy="351.968" width="14.98" height="17.6036" transform="rotate(90)"/>
			</g>
			<g id="shape23-105" v:mID="23" v:groupContext="groupContent">
				<path d="M0 359.46 L0 348.21 A11.25 11.25 -180 0 0 -11.25 336.96 L-121.5 336.96 A18 18 -180 0 0 -139.5 354.96 L-139.5
							 537.21 A6.75 6.75 -180 0 0 -132.75 543.96 L-126 543.96" class="st11"/>
			</g>
		</g>
		<g id="group26-110" transform="translate(148.228,-310.228)" v:mID="26" v:groupContext="group">
			<v:userDefs>
				<v:ud v:nameU="BeginAngle" v:prompt="reserved for future use" v:val="VT0(2):26"/>
				<v:ud v:nameU="EndAngle" v:prompt="reserved for future use" v:val="VT0(2):26"/>
				<v:ud v:nameU="RealBeginX" v:val="VT0(0):32"/>
				<v:ud v:nameU="RealBeginY" v:val="VT0(0):32"/>
				<v:ud v:nameU="EndX" v:val="VT0(-5.5511151231258E-017):1"/>
				<v:ud v:nameU="EndY" v:val="VT0(-0.125):1"/>
				<v:ud v:nameU="Row_7" v:val="VT0(-1):1"/>
				<v:ud v:nameU="BeginY" v:val="VT0(-0.125):1"/>
				<v:ud v:nameU="RealBeginX" v:prompt="" v:val="VT0(-1.5707963267949):32"/>
				<v:ud v:nameU="EndY" v:prompt="" v:val="VT0(0):1"/>
				<v:ud v:nameU="Row_7" v:prompt="" v:val="VT0(-0.25):1"/>
				<v:ud v:nameU="BeginY" v:prompt="" v:val="VT0(2.296875):1"/>
			</v:userDefs>
			<title>Transition, Edge.26</title>
			<g id="shape27-111" v:mID="27" v:groupContext="shape" transform="translate(18,172.863)">
				<title>Straight Edge.28</title>
				<desc>N</desc>
				<v:userDefs>
					<v:ud v:nameU="SetSize" v:val="VT0(0):26"/>
				</v:userDefs>
				<v:textBlock v:margins="rect(4,4,4,4)"/>
				<v:textRect cx="7.48817" cy="351.968" width="14.98" height="17.6036"/>
			</g>
			<g id="shape28-114" v:mID="28" v:groupContext="shape" transform="translate(351.968,344.479) rotate(90)">
				<title>Straight Edge.29</title>
				<desc>N</desc>
				<v:userDefs>
					<v:ud v:nameU="SetSize" v:val="VT0(0):26"/>
				</v:userDefs>
				<v:textBlock v:margins="rect(4,4,4,4)"/>
				<v:textRect cx="7.48817" cy="351.968" width="14.98" height="17.6036" transform="rotate(-90)"/>
			</g>
			<g id="shape26-117" v:mID="26" v:groupContext="groupContent">
				<path d="M0 359.46 L0 515.83 A9 9 -180 0 0 9 524.83 L18 524.83" class="st11"/>
			</g>
		</g>
		<g id="group29-122" transform="translate(399.103,-330.478)" v:mID="29" v:groupContext="group">
			<v:userDefs>
				<v:ud v:nameU="F" v:val="VT0(1):26"/>
				<v:ud v:nameU="Format" v:val="VT0(0):26"/>
				<v:ud v:nameU="ActiveObject" v:prompt="0,0626" v:val="VT0(0):26"/>
			</v:userDefs>
			<title>Class.29</title>
			<g id="shape30-123" v:mID="30" v:groupContext="shape" transform="translate(72,5.68434E-014)">
				<title>工作表.30</title>
				<path d="M0 359.46 L0 336.96 L0 359.46 Z" class="st1"/>
			</g>
			<g id="shape31-126" v:mID="31" v:groupContext="shape">
				<title>工作表.31</title>
				<path d="M72 359.46 L0 359.46 L72 359.46 Z" class="st1"/>
			</g>
			<g id="shape32-129" v:mID="32" v:groupContext="shape">
				<title>工作表.32</title>
				<path d="M72 359.46 L0 359.46 L72 359.46 Z" class="st1"/>
			</g>
			<g id="shape33-132" v:mID="33" v:groupContext="shape">
				<title>工作表.33</title>
				<path d="M72 359.46 L0 359.46 L72 359.46 Z" class="st1"/>
			</g>
			<g id="shape34-135" v:mID="34" v:groupContext="shape">
				<title>工作表.34</title>
				<desc>ftrace_pages_start</desc>
				<v:userDefs>
					<v:ud v:nameU="TabSize" v:val="VT0(0.125):0"/>
					<v:ud v:nameU="TabSize" v:prompt="" v:val="VT0(0.078125):26"/>
				</v:userDefs>
				<v:textBlock v:margins="rect(4,4,4,4)"/>
				<v:textRect cx="36" cy="348.206" width="72" height="22.5"/>
				<path d="M72 359.46 L72 336.96 L0 336.96 L0 359.46 L72 359.46 ZM0 359.46 L0 336.96 L0 359.46 ZM72 336.96 L72 359.46
							 L72 336.96 Z" class="st1"/>
				<path d="M72 359.46 L72 336.96" class="st4"/>
				<path d="M0 359.46 L0 336.96" class="st4"/>
				<path d="M0 336.96 L72 336.96" class="st4"/>
				<path d="M0 359.46 L72 359.46" class="st4"/>
				<text x="4.89" y="350.61" class="st10" v:langID="2052"><v:paragraph v:horizAlign="1"/><v:tabList/>ftrace_pages_start</text>			</g>
		</g>
		<g id="group41-142" transform="translate(316.978,-197.728)" v:mID="41" v:groupContext="group">
			<v:userDefs>
				<v:ud v:nameU="F" v:val="VT0(1):26"/>
				<v:ud v:nameU="Format" v:val="VT0(0):26"/>
				<v:ud v:nameU="ActiveObject" v:prompt="0,0626" v:val="VT0(0):26"/>
			</v:userDefs>
			<title>Class.41</title>
			<g id="shape42-143" v:mID="42" v:groupContext="shape" transform="translate(94.5,5.68434E-014)">
				<title>工作表.42</title>
				<path d="M0 359.46 L0 269.46 L0 359.46 Z" class="st1"/>
			</g>
			<g id="shape43-146" v:mID="43" v:groupContext="shape">
				<title>工作表.43</title>
				<desc>int size</desc>
				<v:textBlock v:margins="rect(4,4,4,4)" v:verticalAlign="0"/>
				<v:textRect cx="47.25" cy="348.206" width="94.5" height="22.5"/>
				<rect x="0" y="336.956" width="94.5" height="22.5" class="st1"/>
				<rect x="0" y="336.956" width="94.5" height="22.5" class="st2"/>
				<text x="4" y="348.16" class="st3" v:langID="2052"><v:paragraph/><v:tabList/>int size</text>			</g>
			<g id="shape44-150" v:mID="44" v:groupContext="shape" transform="translate(0,-22.5)">
				<title>工作表.44</title>
				<desc>struct dyn_ftrace *records</desc>
				<v:textBlock v:margins="rect(4,4,4,4)" v:verticalAlign="0"/>
				<v:textRect cx="47.25" cy="348.206" width="94.5" height="22.5"/>
				<rect x="0" y="336.956" width="94.5" height="22.5" class="st1"/>
				<rect x="0" y="336.956" width="94.5" height="22.5" class="st2"/>
				<text x="4" y="348.16" class="st3" v:langID="2052"><v:paragraph/><v:tabList/>struct dyn_ftrace *records</text>			</g>
			<g id="shape45-154" v:mID="45" v:groupContext="shape" transform="translate(0,-45)">
				<title>工作表.45</title>
				<desc>struct ftrace_page *next</desc>
				<v:textBlock v:margins="rect(4,4,4,4)" v:verticalAlign="0"/>
				<v:textRect cx="47.25" cy="348.206" width="94.5" height="22.5"/>
				<rect x="0" y="336.956" width="94.5" height="22.5" class="st1"/>
				<rect x="0" y="336.956" width="94.5" height="22.5" class="st2"/>
				<text x="4" y="348.16" class="st3" v:langID="2052"><v:paragraph/><v:tabList/>struct ftrace_page *next</text>			</g>
			<g id="shape46-158" v:mID="46" v:groupContext="shape" transform="translate(0,-67.5)">
				<title>工作表.46</title>
				<desc>struct ftrace_page</desc>
				<v:userDefs>
					<v:ud v:nameU="TabSize" v:val="VT0(0.125):0"/>
				</v:userDefs>
				<v:textBlock v:margins="rect(4,4,4,4)"/>
				<v:textRect cx="47.25" cy="348.206" width="94.5" height="22.5"/>
				<path d="M94.5 359.46 L94.5 336.96 L0 336.96 L0 359.46 L94.5 359.46 ZM0 426.96 L0 336.96 L0 426.96 ZM94.5 336.96
							 L94.5 426.96 L94.5 336.96 Z" class="st1"/>
				<path d="M94.5 426.96 L94.5 336.96" class="st4"/>
				<path d="M0 426.96 L0 336.96" class="st4"/>
				<path d="M0 336.96 L94.5 336.96" class="st4"/>
				<path d="M0 359.46 L94.5 359.46" class="st4"/>
				<path d="M0 381.96 L94.5 381.96" class="st4"/>
				<path d="M0 404.46 L94.5 404.46" class="st4"/>
				<path d="M0 426.96 L94.5 426.96" class="st4"/>
				<text x="16.97" y="350.61" class="st10" v:langID="2052"><v:paragraph v:horizAlign="1"/><v:tabList/>struct ftrace_page</text>			</g>
		</g>
		<g id="group47-168" transform="translate(458.728,-197.728)" v:mID="47" v:groupContext="group">
			<v:userDefs>
				<v:ud v:nameU="F" v:val="VT0(1):26"/>
				<v:ud v:nameU="Format" v:val="VT0(0):26"/>
				<v:ud v:nameU="ActiveObject" v:prompt="0,0626" v:val="VT0(0):26"/>
			</v:userDefs>
			<title>Class.47</title>
			<g id="shape48-169" v:mID="48" v:groupContext="shape" transform="translate(94.5,5.68434E-014)">
				<title>工作表.48</title>
				<path d="M0 359.46 L0 269.46 L0 359.46 Z" class="st1"/>
			</g>
			<g id="shape49-172" v:mID="49" v:groupContext="shape">
				<title>工作表.49</title>
				<desc>int size</desc>
				<v:textBlock v:margins="rect(4,4,4,4)" v:verticalAlign="0"/>
				<v:textRect cx="47.25" cy="348.206" width="94.5" height="22.5"/>
				<rect x="0" y="336.956" width="94.5" height="22.5" class="st1"/>
				<rect x="0" y="336.956" width="94.5" height="22.5" class="st2"/>
				<text x="4" y="348.16" class="st3" v:langID="2052"><v:paragraph/><v:tabList/>int size</text>			</g>
			<g id="shape50-176" v:mID="50" v:groupContext="shape" transform="translate(0,-22.5)">
				<title>工作表.50</title>
				<desc>struct dyn_ftrace *records</desc>
				<v:textBlock v:margins="rect(4,4,4,4)" v:verticalAlign="0"/>
				<v:textRect cx="47.25" cy="348.206" width="94.5" height="22.5"/>
				<rect x="0" y="336.956" width="94.5" height="22.5" class="st1"/>
				<rect x="0" y="336.956" width="94.5" height="22.5" class="st2"/>
				<text x="4" y="348.16" class="st3" v:langID="2052"><v:paragraph/><v:tabList/>struct dyn_ftrace *records</text>			</g>
			<g id="shape51-180" v:mID="51" v:groupContext="shape" transform="translate(0,-45)">
				<title>工作表.51</title>
				<desc>struct ftrace_page *next</desc>
				<v:textBlock v:margins="rect(4,4,4,4)" v:verticalAlign="0"/>
				<v:textRect cx="47.25" cy="348.206" width="94.5" height="22.5"/>
				<rect x="0" y="336.956" width="94.5" height="22.5" class="st1"/>
				<rect x="0" y="336.956" width="94.5" height="22.5" class="st2"/>
				<text x="4" y="348.16" class="st3" v:langID="2052"><v:paragraph/><v:tabList/>struct ftrace_page *next</text>			</g>
			<g id="shape52-184" v:mID="52" v:groupContext="shape" transform="translate(0,-67.5)">
				<title>工作表.52</title>
				<desc>struct ftrace_page</desc>
				<v:userDefs>
					<v:ud v:nameU="TabSize" v:val="VT0(0.125):0"/>
				</v:userDefs>
				<v:textBlock v:margins="rect(4,4,4,4)"/>
				<v:textRect cx="47.25" cy="348.206" width="94.5" height="22.5"/>
				<path d="M94.5 359.46 L94.5 336.96 L0 336.96 L0 359.46 L94.5 359.46 ZM0 426.96 L0 336.96 L0 426.96 ZM94.5 336.96
							 L94.5 426.96 L94.5 336.96 Z" class="st1"/>
				<path d="M94.5 426.96 L94.5 336.96" class="st4"/>
				<path d="M0 426.96 L0 336.96" class="st4"/>
				<path d="M0 336.96 L94.5 336.96" class="st4"/>
				<path d="M0 359.46 L94.5 359.46" class="st4"/>
				<path d="M0 381.96 L94.5 381.96" class="st4"/>
				<path d="M0 404.46 L94.5 404.46" class="st4"/>
				<path d="M0 426.96 L94.5 426.96" class="st4"/>
				<text x="16.97" y="350.61" class="st10" v:langID="2052"><v:paragraph v:horizAlign="1"/><v:tabList/>struct ftrace_page</text>			</g>
		</g>
		<g id="group53-194" transform="translate(402.478,-251.728)" v:mID="53" v:groupContext="group">
			<v:userDefs>
				<v:ud v:nameU="BeginAngle" v:prompt="reserved for future use" v:val="VT0(2):26"/>
				<v:ud v:nameU="EndAngle" v:prompt="reserved for future use" v:val="VT0(2):26"/>
				<v:ud v:nameU="RealBeginX" v:val="VT0(0):32"/>
				<v:ud v:nameU="RealBeginY" v:val="VT0(0):32"/>
				<v:ud v:nameU="EndX" v:val="VT0(-5.5511151231258E-017):1"/>
				<v:ud v:nameU="EndY" v:val="VT0(-0.125):1"/>
				<v:ud v:nameU="Row_7" v:val="VT0(-1):1"/>
				<v:ud v:nameU="BeginY" v:val="VT0(-0.125):1"/>
				<v:ud v:nameU="EndY" v:prompt="" v:val="VT0(0):1"/>
				<v:ud v:nameU="Row_7" v:prompt="" v:val="VT0(-0.78125):1"/>
				<v:ud v:nameU="BeginY" v:prompt="" v:val="VT0(-0.5):1"/>
			</v:userDefs>
			<title>Transition, Edge.53</title>
			<g id="shape54-195" v:mID="54" v:groupContext="shape" transform="translate(56.25,-12.5995)">
				<title>Straight Edge.28</title>
				<desc>N</desc>
				<v:userDefs>
					<v:ud v:nameU="SetSize" v:val="VT0(0):26"/>
				</v:userDefs>
				<v:textBlock v:margins="rect(4,4,4,4)"/>
				<v:textRect cx="23.4005" cy="336.055" width="14.98" height="17.6036"/>
			</g>
			<g id="shape55-198" v:mID="55" v:groupContext="shape" transform="translate(-14.9763,7.48817)">
				<title>Straight Edge.29</title>
				<desc>N</desc>
				<v:userDefs>
					<v:ud v:nameU="SetSize" v:val="VT0(0):26"/>
				</v:userDefs>
				<v:textBlock v:margins="rect(4,4,4,4)"/>
				<v:textRect cx="7.48817" cy="351.968" width="14.98" height="17.6036"/>
			</g>
			<g id="shape53-201" v:mID="53" v:groupContext="groupContent">
				<path d="M0 359.46 L11.25 359.46 A11.25 11.25 -180 0 0 22.5 348.21 L22.5 340.33 A16.875 16.875 0 0 1 39.37 323.46
							 L56.25 323.46" class="st11"/>
			</g>
		</g>
		<g id="group71-206" transform="translate(316.978,-8.72789)" v:mID="71" v:groupContext="group">
			<title>工作表.71</title>
			<g id="group56-207" transform="translate(0,-54)" v:mID="56" v:groupContext="group">
				<v:userDefs>
					<v:ud v:nameU="F" v:val="VT0(1):26"/>
					<v:ud v:nameU="Format" v:val="VT0(0):26"/>
					<v:ud v:nameU="ActiveObject" v:prompt="0,0626" v:val="VT0(0):26"/>
				</v:userDefs>
				<title>Class.56</title>
				<g id="shape57-208" v:mID="57" v:groupContext="shape" transform="translate(94.5,5.68434E-014)">
					<title>工作表.57</title>
					<path d="M0 359.46 L0 287.46 L0 359.46 Z" class="st1"/>
				</g>
				<g id="shape58-211" v:mID="58" v:groupContext="shape">
					<title>工作表.58</title>
					<desc>...</desc>
					<v:textBlock v:margins="rect(4,4,4,4)" v:verticalAlign="0"/>
					<v:textRect cx="47.25" cy="350.456" width="94.5" height="18"/>
					<rect x="0" y="341.456" width="94.5" height="18" class="st1"/>
					<rect x="0" y="341.456" width="94.5" height="18" class="st2"/>
					<text x="4" y="352.66" class="st3" v:langID="2052"><v:paragraph/><v:tabList/>...</text>				</g>
				<g id="shape59-215" v:mID="59" v:groupContext="shape" transform="translate(0,-18)">
					<title>工作表.59</title>
					<desc>unsigned int flags</desc>
					<v:textBlock v:margins="rect(4,4,4,4)" v:verticalAlign="0"/>
					<v:textRect cx="47.25" cy="350.456" width="94.5" height="18"/>
					<rect x="0" y="341.456" width="94.5" height="18" class="st1"/>
					<rect x="0" y="341.456" width="94.5" height="18" class="st2"/>
					<text x="4" y="352.66" class="st3" v:langID="2052"><v:paragraph/><v:tabList/>unsigned int flags</text>				</g>
				<g id="shape60-219" v:mID="60" v:groupContext="shape" transform="translate(0,-36)">
					<title>工作表.60</title>
					<desc>unsigned int ip = addr1</desc>
					<v:textBlock v:margins="rect(4,4,4,4)" v:verticalAlign="0"/>
					<v:textRect cx="47.25" cy="350.456" width="94.5" height="18"/>
					<rect x="0" y="341.456" width="94.5" height="18" class="st1"/>
					<rect x="0" y="341.456" width="94.5" height="18" class="st2"/>
					<text x="4" y="352.66" class="st3" v:langID="2052"><v:paragraph/><v:tabList/>unsigned int ip = addr1</text>				</g>
				<g id="shape61-223" v:mID="61" v:groupContext="shape" transform="translate(0,-54)">
					<title>工作表.61</title>
					<desc>struct dyn_ftrace[]</desc>
					<v:userDefs>
						<v:ud v:nameU="TabSize" v:val="VT0(0.125):0"/>
					</v:userDefs>
					<v:textBlock v:margins="rect(4,4,4,4)"/>
					<v:textRect cx="47.25" cy="350.456" width="94.5" height="18"/>
					<path d="M94.5 359.46 L94.5 341.46 L0 341.46 L0 359.46 L94.5 359.46 ZM0 413.46 L0 341.46 L0 413.46 ZM94.5 341.46
								 L94.5 413.46 L94.5 341.46 Z" class="st1"/>
					<path d="M94.5 413.46 L94.5 341.46" class="st4"/>
					<path d="M0 413.46 L0 341.46" class="st4"/>
					<path d="M0 341.46 L94.5 341.46" class="st4"/>
					<path d="M0 359.46 L94.5 359.46" class="st4"/>
					<path d="M0 377.46 L94.5 377.46" class="st4"/>
					<path d="M0 395.46 L94.5 395.46" class="st4"/>
					<path d="M0 413.46 L94.5 413.46" class="st4"/>
					<text x="16.22" y="352.86" class="st10" v:langID="2052"><v:paragraph v:horizAlign="1"/><v:tabList/>struct dyn_ftrace[]</text>				</g>
			</g>
			<g id="group62-233" v:mID="62" v:groupContext="group">
				<v:userDefs>
					<v:ud v:nameU="F" v:val="VT0(1):26"/>
					<v:ud v:nameU="Format" v:val="VT0(0):26"/>
					<v:ud v:nameU="ActiveObject" v:prompt="0,0626" v:val="VT0(0):26"/>
				</v:userDefs>
				<title>Class.62</title>
				<g id="shape63-234" v:mID="63" v:groupContext="shape" transform="translate(94.5,5.68434E-014)">
					<title>工作表.63</title>
					<path d="M0 359.46 L0 305.46 L0 359.46 Z" class="st1"/>
				</g>
				<g id="shape64-237" v:mID="64" v:groupContext="shape">
					<title>工作表.64</title>
					<path d="M94.5 359.46 L0 359.46 L94.5 359.46 Z" class="st1"/>
				</g>
				<g id="shape65-240" v:mID="65" v:groupContext="shape">
					<title>工作表.65</title>
					<desc>...</desc>
					<v:textBlock v:margins="rect(4,4,4,4)" v:verticalAlign="0"/>
					<v:textRect cx="47.25" cy="350.456" width="94.5" height="18"/>
					<rect x="0" y="341.456" width="94.5" height="18" class="st1"/>
					<rect x="0" y="341.456" width="94.5" height="18" class="st2"/>
					<text x="4" y="352.66" class="st3" v:langID="2052"><v:paragraph/><v:tabList/>...</text>				</g>
				<g id="shape66-244" v:mID="66" v:groupContext="shape" transform="translate(0,-18)">
					<title>工作表.66</title>
					<desc>unsigned int flags</desc>
					<v:textBlock v:margins="rect(4,4,4,4)" v:verticalAlign="0"/>
					<v:textRect cx="47.25" cy="350.456" width="94.5" height="18"/>
					<rect x="0" y="341.456" width="94.5" height="18" class="st1"/>
					<rect x="0" y="341.456" width="94.5" height="18" class="st2"/>
					<text x="4" y="352.66" class="st3" v:langID="2052"><v:paragraph/><v:tabList/>unsigned int flags</text>				</g>
				<g id="shape67-248" v:mID="67" v:groupContext="shape" transform="translate(0,-36)">
					<title>工作表.67</title>
					<desc>unsigned int ip = addr2</desc>
					<v:userDefs>
						<v:ud v:nameU="TabSize" v:val="VT0(0.125):0"/>
					</v:userDefs>
					<v:textBlock v:margins="rect(4,4,4,4)"/>
					<v:textRect cx="47.25" cy="350.456" width="94.5" height="18"/>
					<path d="M94.5 359.46 L94.5 341.46 L0 341.46 L0 359.46 L94.5 359.46 ZM0 395.46 L0 341.46 L0 395.46 ZM94.5 341.46
								 L94.5 395.46 L94.5 341.46 Z" class="st1"/>
					<path d="M94.5 395.46 L94.5 341.46" class="st4"/>
					<path d="M0 395.46 L0 341.46" class="st4"/>
					<path d="M0 341.46 L94.5 341.46" class="st4"/>
					<path d="M0 359.46 L94.5 359.46" class="st4"/>
					<path d="M0 377.46 L94.5 377.46" class="st4"/>
					<path d="M0 395.46 L94.5 395.46" class="st4"/>
					<text x="4" y="352.92" class="st3" v:langID="2052"><v:paragraph/><v:tabList/>unsigned int ip = addr2</text>				</g>
			</g>
		</g>
		<g id="group72-257" transform="translate(466.603,-8.72789)" v:mID="72" v:groupContext="group">
			<title>工作表.72</title>
			<g id="group73-258" transform="translate(0,-54)" v:mID="73" v:groupContext="group">
				<v:userDefs>
					<v:ud v:nameU="F" v:val="VT0(1):26"/>
					<v:ud v:nameU="Format" v:val="VT0(0):26"/>
					<v:ud v:nameU="ActiveObject" v:prompt="0,0626" v:val="VT0(0):26"/>
				</v:userDefs>
				<title>Class.56</title>
				<g id="shape74-259" v:mID="74" v:groupContext="shape" transform="translate(94.5,5.68434E-014)">
					<title>工作表.74</title>
					<path d="M0 359.46 L0 287.46 L0 359.46 Z" class="st1"/>
				</g>
				<g id="shape75-262" v:mID="75" v:groupContext="shape">
					<title>工作表.75</title>
					<desc>...</desc>
					<v:textBlock v:margins="rect(4,4,4,4)" v:verticalAlign="0"/>
					<v:textRect cx="47.25" cy="350.456" width="94.5" height="18"/>
					<rect x="0" y="341.456" width="94.5" height="18" class="st1"/>
					<rect x="0" y="341.456" width="94.5" height="18" class="st2"/>
					<text x="4" y="352.66" class="st3" v:langID="2052"><v:paragraph/><v:tabList/>...</text>				</g>
				<g id="shape76-266" v:mID="76" v:groupContext="shape" transform="translate(0,-18)">
					<title>工作表.76</title>
					<desc>unsigned int flags</desc>
					<v:textBlock v:margins="rect(4,4,4,4)" v:verticalAlign="0"/>
					<v:textRect cx="47.25" cy="350.456" width="94.5" height="18"/>
					<rect x="0" y="341.456" width="94.5" height="18" class="st1"/>
					<rect x="0" y="341.456" width="94.5" height="18" class="st2"/>
					<text x="4" y="352.66" class="st3" v:langID="2052"><v:paragraph/><v:tabList/>unsigned int flags</text>				</g>
				<g id="shape77-270" v:mID="77" v:groupContext="shape" transform="translate(0,-36)">
					<title>工作表.77</title>
					<desc>unsigned int ip</desc>
					<v:textBlock v:margins="rect(4,4,4,4)" v:verticalAlign="0"/>
					<v:textRect cx="47.25" cy="350.456" width="94.5" height="18"/>
					<rect x="0" y="341.456" width="94.5" height="18" class="st1"/>
					<rect x="0" y="341.456" width="94.5" height="18" class="st2"/>
					<text x="4" y="352.66" class="st3" v:langID="2052"><v:paragraph/><v:tabList/>unsigned int ip</text>				</g>
				<g id="shape78-274" v:mID="78" v:groupContext="shape" transform="translate(0,-54)">
					<title>工作表.78</title>
					<desc>struct dyn_ftrace[]</desc>
					<v:userDefs>
						<v:ud v:nameU="TabSize" v:val="VT0(0.125):0"/>
					</v:userDefs>
					<v:textBlock v:margins="rect(4,4,4,4)"/>
					<v:textRect cx="47.25" cy="350.456" width="94.5" height="18"/>
					<path d="M94.5 359.46 L94.5 341.46 L0 341.46 L0 359.46 L94.5 359.46 ZM0 413.46 L0 341.46 L0 413.46 ZM94.5 341.46
								 L94.5 413.46 L94.5 341.46 Z" class="st1"/>
					<path d="M94.5 413.46 L94.5 341.46" class="st4"/>
					<path d="M0 413.46 L0 341.46" class="st4"/>
					<path d="M0 341.46 L94.5 341.46" class="st4"/>
					<path d="M0 359.46 L94.5 359.46" class="st4"/>
					<path d="M0 377.46 L94.5 377.46" class="st4"/>
					<path d="M0 395.46 L94.5 395.46" class="st4"/>
					<path d="M0 413.46 L94.5 413.46" class="st4"/>
					<text x="16.22" y="352.86" class="st10" v:langID="2052"><v:paragraph v:horizAlign="1"/><v:tabList/>struct dyn_ftrace[]</text>				</g>
			</g>
			<g id="group79-284" v:mID="79" v:groupContext="group">
				<v:userDefs>
					<v:ud v:nameU="F" v:val="VT0(1):26"/>
					<v:ud v:nameU="Format" v:val="VT0(0):26"/>
					<v:ud v:nameU="ActiveObject" v:prompt="0,0626" v:val="VT0(0):26"/>
				</v:userDefs>
				<title>Class.62</title>
				<g id="shape80-285" v:mID="80" v:groupContext="shape" transform="translate(94.5,5.68434E-014)">
					<title>工作表.80</title>
					<path d="M0 359.46 L0 305.46 L0 359.46 Z" class="st1"/>
				</g>
				<g id="shape81-288" v:mID="81" v:groupContext="shape">
					<title>工作表.81</title>
					<path d="M94.5 359.46 L0 359.46 L94.5 359.46 Z" class="st1"/>
				</g>
				<g id="shape82-291" v:mID="82" v:groupContext="shape">
					<title>工作表.82</title>
					<desc>...</desc>
					<v:textBlock v:margins="rect(4,4,4,4)" v:verticalAlign="0"/>
					<v:textRect cx="47.25" cy="350.456" width="94.5" height="18"/>
					<rect x="0" y="341.456" width="94.5" height="18" class="st1"/>
					<rect x="0" y="341.456" width="94.5" height="18" class="st2"/>
					<text x="4" y="352.66" class="st3" v:langID="2052"><v:paragraph/><v:tabList/>...</text>				</g>
				<g id="shape83-295" v:mID="83" v:groupContext="shape" transform="translate(0,-18)">
					<title>工作表.83</title>
					<desc>unsigned int flags</desc>
					<v:textBlock v:margins="rect(4,4,4,4)" v:verticalAlign="0"/>
					<v:textRect cx="47.25" cy="350.456" width="94.5" height="18"/>
					<rect x="0" y="341.456" width="94.5" height="18" class="st1"/>
					<rect x="0" y="341.456" width="94.5" height="18" class="st2"/>
					<text x="4" y="352.66" class="st3" v:langID="2052"><v:paragraph/><v:tabList/>unsigned int flags</text>				</g>
				<g id="shape84-299" v:mID="84" v:groupContext="shape" transform="translate(0,-36)">
					<title>工作表.84</title>
					<desc>unsigned int ip</desc>
					<v:userDefs>
						<v:ud v:nameU="TabSize" v:val="VT0(0.125):0"/>
					</v:userDefs>
					<v:textBlock v:margins="rect(4,4,4,4)"/>
					<v:textRect cx="47.25" cy="350.456" width="94.5" height="18"/>
					<path d="M94.5 359.46 L94.5 341.46 L0 341.46 L0 359.46 L94.5 359.46 ZM0 395.46 L0 341.46 L0 395.46 ZM94.5 341.46
								 L94.5 395.46 L94.5 341.46 Z" class="st1"/>
					<path d="M94.5 395.46 L94.5 341.46" class="st4"/>
					<path d="M0 395.46 L0 341.46" class="st4"/>
					<path d="M0 341.46 L94.5 341.46" class="st4"/>
					<path d="M0 359.46 L94.5 359.46" class="st4"/>
					<path d="M0 377.46 L94.5 377.46" class="st4"/>
					<path d="M0 395.46 L94.5 395.46" class="st4"/>
					<text x="4" y="352.92" class="st3" v:langID="2052"><v:paragraph/><v:tabList/>unsigned int ip</text>				</g>
			</g>
		</g>
		<g id="shape86-308" v:mID="86" v:groupContext="shape" transform="translate(-344.811,350.728) rotate(-90)">
			<title>Duration (vertical).86</title>
			<desc>ftrace_page. size = array_size</desc>
			<v:userDefs>
				<v:ud v:nameU="MarkSize" v:val="VT0(0.0625):26"/>
				<v:ud v:nameU="Extension_Lines" v:val="VT0(0):26"/>
			</v:userDefs>
			<v:textBlock v:margins="rect(4,4,4,4)"/>
			<v:textRect cx="54" cy="955.121" width="105.18" height="17.6036" transform="rotate(90)"/>
			<path d="M0 968.62 L0 959.62 L0 968.62 ZM108 968.62 L108 959.62 L108 968.62 Z" class="st1"/>
			<path d="M0 964.12 L108 964.12" class="st5"/>
			<path d="M0 968.62 L0 959.62" class="st4"/>
			<path d="" class="st4"/>
			<path d="M108 968.62 L108 959.62" class="st4"/>
			<path d="" class="st4"/>
			<rect v:rectContext="textBkgnd" x="907.442" y="-58.7997" width="95.3591" height="9.59985" transform="rotate(90)"
					class="st7"/>
			<text x="907.44" y="-51.6" transform="rotate(90)" class="st3" v:langID="2052"><v:paragraph v:horizAlign="1"/><v:tabList/>ftrace_page. size = array_size</text>		</g>
		<g id="group93-321" transform="translate(206.728,-328.228)" v:mID="93" v:groupContext="group">
			<v:userDefs>
				<v:ud v:nameU="BeginAngle" v:prompt="reserved for future use" v:val="VT0(2):26"/>
				<v:ud v:nameU="EndAngle" v:prompt="reserved for future use" v:val="VT0(2):26"/>
				<v:ud v:nameU="RealBeginX" v:val="VT0(0):32"/>
				<v:ud v:nameU="RealBeginY" v:val="VT0(0):32"/>
				<v:ud v:nameU="EndX" v:val="VT0(-5.5511151231258E-017):1"/>
				<v:ud v:nameU="EndY" v:val="VT0(-0.125):1"/>
				<v:ud v:nameU="Row_7" v:val="VT0(-1):1"/>
				<v:ud v:nameU="BeginY" v:val="VT0(-0.125):1"/>
				<v:ud v:nameU="RealBeginY" v:prompt="" v:val="VT0(-0.25837819612635):32"/>
				<v:ud v:nameU="EndY" v:prompt="" v:val="VT0(0):1"/>
				<v:ud v:nameU="Row_7" v:prompt="" v:val="VT0(-1.546875):1"/>
				<v:ud v:nameU="BeginY" v:prompt="" v:val="VT0(3.0625):1"/>
			</v:userDefs>
			<title>Transition, Edge.93</title>
			<g id="shape94-322" v:mID="94" v:groupContext="shape" transform="translate(201.08,240.531) rotate(14.804)">
				<title>Straight Edge.28</title>
				<desc>N</desc>
				<v:userDefs>
					<v:ud v:nameU="SetSize" v:val="VT0(0):26"/>
				</v:userDefs>
				<v:textBlock v:margins="rect(4,4,4,4)"/>
				<v:textRect cx="8.37669" cy="351.079" width="14.98" height="17.6036" transform="rotate(-14.804)"/>
			</g>
			<g id="shape95-324" v:mID="95" v:groupContext="shape" transform="translate(-16.7534,8.37669)">
				<title>Straight Edge.29</title>
				<desc>N</desc>
				<v:userDefs>
					<v:ud v:nameU="SetSize" v:val="VT0(0):26"/>
				</v:userDefs>
				<v:textBlock v:margins="rect(4,4,4,4)"/>
				<v:textRect cx="8.37669" cy="351.079" width="14.98" height="17.6036"/>
			</g>
			<g id="shape93-326" v:mID="93" v:groupContext="groupContent">
				<path d="M0 359.46 L85.5 359.46 A18 18 0 0 1 103.5 377.46 L103.5 576.02 A3.9375 3.9375 -180 0 0 107.44 579.96 L111.37
							 579.96" class="st12"/>
			</g>
		</g>
		<g id="group96-329" transform="translate(206.728,-310.228)" v:mID="96" v:groupContext="group">
			<v:userDefs>
				<v:ud v:nameU="BeginAngle" v:prompt="reserved for future use" v:val="VT0(2):26"/>
				<v:ud v:nameU="EndAngle" v:prompt="reserved for future use" v:val="VT0(2):26"/>
				<v:ud v:nameU="RealBeginX" v:val="VT0(0):32"/>
				<v:ud v:nameU="RealBeginY" v:val="VT0(0):32"/>
				<v:ud v:nameU="EndX" v:val="VT0(-5.5511151231258E-017):1"/>
				<v:ud v:nameU="EndY" v:val="VT0(-0.125):1"/>
				<v:ud v:nameU="Row_7" v:val="VT0(-1):1"/>
				<v:ud v:nameU="BeginY" v:val="VT0(-0.125):1"/>
				<v:ud v:nameU="EndY" v:prompt="" v:val="VT0(0):1"/>
				<v:ud v:nameU="Row_7" v:prompt="" v:val="VT0(-1.53125):1"/>
				<v:ud v:nameU="BeginY" v:prompt="" v:val="VT0(3.625):1"/>
			</v:userDefs>
			<title>Transition, Edge.96</title>
			<g id="shape97-330" v:mID="97" v:groupContext="shape" transform="translate(110.25,269.292)">
				<title>Straight Edge.28</title>
				<desc>N</desc>
				<v:userDefs>
					<v:ud v:nameU="SetSize" v:val="VT0(0):26"/>
				</v:userDefs>
				<v:textBlock v:margins="rect(4,4,4,4)"/>
				<v:textRect cx="8.29208" cy="351.164" width="14.98" height="17.6036"/>
			</g>
			<g id="shape98-332" v:mID="98" v:groupContext="shape" transform="translate(-16.5842,8.29208)">
				<title>Straight Edge.29</title>
				<desc>N</desc>
				<v:userDefs>
					<v:ud v:nameU="SetSize" v:val="VT0(0):26"/>
				</v:userDefs>
				<v:textBlock v:margins="rect(4,4,4,4)"/>
				<v:textRect cx="8.29208" cy="351.164" width="14.98" height="17.6036"/>
			</g>
			<g id="shape96-334" v:mID="96" v:groupContext="groupContent">
				<path d="M0 359.46 L67.5 359.46 A18 18 0 0 1 85.5 377.46 L85.5 608.08 A12.375 12.375 -180 0 0 97.88 620.46 L110.25
							 620.46" class="st12"/>
			</g>
		</g>
		<g id="group99-337" transform="translate(471.103,-341.728)" v:mID="99" v:groupContext="group">
			<v:userDefs>
				<v:ud v:nameU="BeginAngle" v:prompt="reserved for future use" v:val="VT0(2):26"/>
				<v:ud v:nameU="EndAngle" v:prompt="reserved for future use" v:val="VT0(2):26"/>
				<v:ud v:nameU="RealBeginX" v:val="VT0(0):32"/>
				<v:ud v:nameU="RealBeginY" v:val="VT0(0):32"/>
				<v:ud v:nameU="EndX" v:val="VT0(-5.5511151231258E-017):1"/>
				<v:ud v:nameU="EndY" v:val="VT0(-0.125):1"/>
				<v:ud v:nameU="Row_7" v:val="VT0(-1):1"/>
				<v:ud v:nameU="BeginY" v:val="VT0(-0.125):1"/>
				<v:ud v:nameU="RealBeginY" v:prompt="" v:val="VT0(-1.5707963267949):32"/>
				<v:ud v:nameU="EndY" v:prompt="" v:val="VT0(0):1"/>
				<v:ud v:nameU="Row_7" v:prompt="" v:val="VT0(1.15625):1"/>
				<v:ud v:nameU="BeginY" v:prompt="" v:val="VT0(0.75):1"/>
			</v:userDefs>
			<title>Transition, Edge.99</title>
			<g id="shape100-338" v:mID="100" v:groupContext="shape" transform="translate(268.718,413.456) rotate(90)">
				<title>Straight Edge.28</title>
				<desc>N</desc>
				<v:userDefs>
					<v:ud v:nameU="SetSize" v:val="VT0(0):26"/>
				</v:userDefs>
				<v:textBlock v:margins="rect(4,4,4,4)"/>
				<v:textRect cx="7.48817" cy="351.968" width="14.98" height="17.6036" transform="rotate(-90)"/>
			</g>
			<g id="shape101-341" v:mID="101" v:groupContext="shape" transform="translate(-14.9763,7.48817)">
				<title>Straight Edge.29</title>
				<desc>N</desc>
				<v:userDefs>
					<v:ud v:nameU="SetSize" v:val="VT0(0):26"/>
				</v:userDefs>
				<v:textBlock v:margins="rect(4,4,4,4)"/>
				<v:textRect cx="7.48817" cy="351.968" width="14.98" height="17.6036"/>
			</g>
			<g id="shape99-344" v:mID="99" v:groupContext="groupContent">
				<path d="M0 359.46 L4.5 359.46 A4.5 4.5 0 0 1 9 363.96 L9 363.96 A15.75 15.75 0 0 1 -6.75 379.71 L-66.38 379.71 A16.875
							 16.875 -180 0 0 -83.25 396.58 L-83.25 413.46" class="st11"/>
			</g>
		</g>
		<g id="shape102-349" v:mID="102" v:groupContext="shape" transform="translate(187.628,-334.478)">
			<title>工作表.102</title>
			<desc>__start_mcount_loc</desc>
			<v:textBlock v:margins="rect(4,4,4,4)"/>
			<v:textRect cx="55.1" cy="352.206" width="110.2" height="14.5"/>
			<rect x="0" y="344.956" width="110.2" height="14.5" class="st13"/>
			<text x="21.8" y="354.61" class="st14" v:langID="2052"><v:paragraph v:horizAlign="1"/><v:tabList/>__start_mcount_loc</text>		</g>
		<g id="shape104-352" v:mID="104" v:groupContext="shape" transform="translate(188.728,-265.228)">
			<title>工作表.104</title>
			<desc>__end_mcount_loc</desc>
			<v:textBlock v:margins="rect(4,4,4,4)"/>
			<v:textRect cx="55.1" cy="352.206" width="110.2" height="14.5"/>
			<rect x="0" y="344.956" width="110.2" height="14.5" class="st13"/>
			<text x="23.26" y="354.61" class="st14" v:langID="2052"><v:paragraph v:horizAlign="1"/><v:tabList/>__end_mcount_loc</text>		</g>
	</g>
</svg>
