<?xml version="1.0" encoding="UTF-8" standalone="no"?>
<!DOCTYPE svg PUBLIC "-//W3C//DTD SVG 1.1//EN" "http://www.w3.org/Graphics/SVG/1.1/DTD/svg11.dtd">
<!-- 由 Microsoft Visio, SVG Export 生成 frame_pointer.svg 页-1 -->
<svg xmlns="http://www.w3.org/2000/svg" xmlns:xlink="http://www.w3.org/1999/xlink" xmlns:ev="http://www.w3.org/2001/xml-events"
		xmlns:v="http://schemas.microsoft.com/visio/2003/SVGExtensions/" width="2.88685in" height="2.27731in"
		viewBox="0 0 207.853 163.966" xml:space="preserve" color-interpolation-filters="sRGB" class="st16">
	<title>UML 2.5</title>
	<desc>A template for all diagrams of UML 2.5 and earlier versions.
For help and latest version of the template
please visit http://softwarestencils.com. 
Template version: 27. December 2013. 
Known issues: The &#34;hand-drawn&#34; themes and the &#34;shady&#34; theme may have &#34;desctructive&#34; effect on some shapes.</desc>
	<v:documentProperties v:langID="1033" v:metric="true" v:viewMarkup="false"/>

	<style type="text/css">
	<![CDATA[
		.st1 {fill:#bfbfbf}
		.st2 {stroke:#000000;stroke-linecap:round;stroke-linejoin:round;stroke-width:0.24;visibility:hidden}
		.st3 {fill:#000000;font-family:Calibri;font-size:0.666664em}
		.st4 {stroke:#000000;stroke-linecap:round;stroke-linejoin:round;stroke-width:0.24}
		.st5 {fill:#000000;font-family:Calibri;font-size:0.666664em;font-weight:bold}
		.st6 {font-family:Microsoft Sans Serif;font-size:1em;font-weight:normal}
		.st7 {fill:#fff2cc}
		.st8 {fill:#b7dde8}
		.st9 {fill:#000000;fill-opacity:1;stroke:#000000;stroke-opacity:1;stroke-width:0.08695652173913}
		.st10 {marker-end:url(#mrkr12-76);stroke:#000000;stroke-linecap:round;stroke-linejoin:round;stroke-width:0.24}
		.st11 {fill:#ffffff}
		.st12 {marker-end:url(#mrkr12-76);marker-start:url(#mrkr12-103);stroke:#000000;stroke-linecap:round;stroke-linejoin:round;stroke-width:0.24}
		.st13 {fill:#ffffff;stroke:none;stroke-linecap:butt;stroke-width:7.2}
		.st14 {font-family:Microsoft Sans Serif;font-size:1em}
		.st15 {fill:#000000;font-family:微软雅黑;font-size:0.666664em}
		.st16 {fill:none;fill-rule:evenodd;font-size:12px;overflow:visible;stroke-linecap:square;stroke-miterlimit:3}
	]]>
	</style>

	<defs id="Markers">
		<g id="lend12">
			<path d="M 3 1 L 0 0 L 3 -1 " style="stroke-linecap:round;stroke-linejoin:round;fill:none"/>
		</g>
		<marker id="mrkr12-76" class="st9" v:arrowType="12" v:arrowSize="2" orient="auto" markerUnits="strokeWidth"
				overflow="visible">
			<use xlink:href="#lend12" transform="scale(-11.5,-11.5) "/>
		</marker>
		<marker id="mrkr12-103" class="st9" v:arrowType="12" v:arrowSize="2" orient="auto" markerUnits="strokeWidth"
				overflow="visible">
			<use xlink:href="#lend12" transform="scale(11.5) "/>
		</marker>
	</defs>
	<g v:mID="0" v:index="1" v:groupContext="foregroundPage">
		<title>页-1</title>
		<v:pageProperties v:drawingScale="1" v:pageScale="1" v:drawingUnits="19" v:shadowOffsetX="9" v:shadowOffsetY="-9"/>
		<v:layer v:name="连接线" v:index="0"/>
		<g id="group7-1" transform="translate(45.8529,-57.7643)" v:mID="7" v:groupContext="group">
			<v:userDefs>
				<v:ud v:nameU="F" v:val="VT0(1):26"/>
				<v:ud v:nameU="Format" v:val="VT0(0):26"/>
				<v:ud v:nameU="ActiveObject" v:prompt="0,0626" v:val="VT0(0):26"/>
			</v:userDefs>
			<title>Class</title>
			<g id="shape8-2" v:mID="8" v:groupContext="shape" transform="translate(63,0)">
				<title>工作表.8</title>
				<path d="M0 163.97 L0 115.59 L0 163.97 Z" class="st1"/>
			</g>
			<g id="shape9-5" v:mID="9" v:groupContext="shape">
				<title>工作表.9</title>
				<path d="M63 163.97 L0 163.97 L63 163.97 Z" class="st1"/>
			</g>
			<g id="shape10-8" v:mID="10" v:groupContext="shape">
				<title>工作表.10</title>
				<desc>ra</desc>
				<v:textBlock v:margins="rect(4,4,4,4)"/>
				<v:textRect cx="31.5" cy="157.779" width="63" height="12.375"/>
				<rect x="0" y="151.591" width="63" height="12.375" class="st1"/>
				<rect x="0" y="151.591" width="63" height="12.375" class="st2"/>
				<text x="28.19" y="160.18" class="st3" v:langID="2052"><v:paragraph v:horizAlign="1"/><v:tabList/>ra</text>			</g>
			<g id="shape11-12" v:mID="11" v:groupContext="shape" transform="translate(0,-12.375)">
				<title>工作表.11</title>
				<rect x="0" y="141.466" width="63" height="22.5" class="st1"/>
				<rect x="0" y="141.466" width="63" height="22.5" class="st2"/>
			</g>
			<g id="shape12-15" v:mID="12" v:groupContext="shape" transform="translate(0,-34.875)">
				<title>工作表.12</title>
				<desc>rbp</desc>
				<v:userDefs>
					<v:ud v:nameU="TabSize" v:val="VT0(0.125):0"/>
				</v:userDefs>
				<v:textBlock v:margins="rect(4,4,4,4)"/>
				<v:textRect cx="31.5" cy="157.216" width="63" height="13.5"/>
				<path d="M63 163.97 L63 150.47 L0 150.47 L0 163.97 L63 163.97 ZM0 198.84 L0 150.47 L0 198.84 ZM63 150.47 L63 198.84
							 L63 150.47 Z" class="st1"/>
				<path d="M63 198.84 L63 150.47" class="st4"/>
				<path d="M0 198.84 L0 150.47" class="st4"/>
				<path d="M0 150.47 L63 150.47" class="st4"/>
				<path d="M0 163.97 L63 163.97" class="st4"/>
				<path d="M0 186.47 L63 186.47" class="st4"/>
				<path d="M0 198.84 L63 198.84" class="st4"/>
				<text x="25.71" y="159.68" class="st5" v:langID="2052"><v:paragraph v:horizAlign="1"/><v:tabList/>rb<tspan
							class="st6">p</tspan></text>			</g>
		</g>
		<g id="group19-25" transform="translate(45.8529,-106.264)" v:mID="19" v:groupContext="group">
			<v:userDefs>
				<v:ud v:nameU="F" v:val="VT0(1):26"/>
				<v:ud v:nameU="Format" v:val="VT0(0):26"/>
				<v:ud v:nameU="ActiveObject" v:prompt="0,0626" v:val="VT0(0):26"/>
			</v:userDefs>
			<title>Class.19</title>
			<g id="shape20-26" v:mID="20" v:groupContext="shape" transform="translate(63,0)">
				<title>工作表.20</title>
				<path d="M0 163.97 L0 115.59 L0 163.97 Z" class="st7"/>
			</g>
			<g id="shape21-29" v:mID="21" v:groupContext="shape">
				<title>工作表.21</title>
				<path d="M63 163.97 L0 163.97 L63 163.97 Z" class="st7"/>
			</g>
			<g id="shape22-32" v:mID="22" v:groupContext="shape">
				<title>工作表.22</title>
				<desc>ra</desc>
				<v:textBlock v:margins="rect(4,4,4,4)"/>
				<v:textRect cx="31.5" cy="157.779" width="63" height="12.375"/>
				<rect x="0" y="151.591" width="63" height="12.375" class="st7"/>
				<rect x="0" y="151.591" width="63" height="12.375" class="st2"/>
				<text x="28.19" y="160.18" class="st3" v:langID="2052"><v:paragraph v:horizAlign="1"/><v:tabList/>ra</text>			</g>
			<g id="shape23-36" v:mID="23" v:groupContext="shape" transform="translate(0,-12.375)">
				<title>工作表.23</title>
				<rect x="0" y="141.466" width="63" height="22.5" class="st7"/>
				<rect x="0" y="141.466" width="63" height="22.5" class="st2"/>
			</g>
			<g id="shape24-39" v:mID="24" v:groupContext="shape" transform="translate(0,-34.875)">
				<title>工作表.24</title>
				<desc>rbp</desc>
				<v:userDefs>
					<v:ud v:nameU="TabSize" v:val="VT0(0.125):0"/>
				</v:userDefs>
				<v:textBlock v:margins="rect(4,4,4,4)"/>
				<v:textRect cx="31.5" cy="157.216" width="63" height="13.5"/>
				<path d="M63 163.97 L63 150.47 L0 150.47 L0 163.97 L63 163.97 ZM0 198.84 L0 150.47 L0 198.84 ZM63 150.47 L63 198.84
							 L63 150.47 Z" class="st7"/>
				<path d="M63 198.84 L63 150.47" class="st4"/>
				<path d="M0 198.84 L0 150.47" class="st4"/>
				<path d="M0 150.47 L63 150.47" class="st4"/>
				<path d="M0 163.97 L63 163.97" class="st4"/>
				<path d="M0 186.47 L63 186.47" class="st4"/>
				<path d="M0 198.84 L63 198.84" class="st4"/>
				<text x="25.71" y="159.68" class="st5" v:langID="2052"><v:paragraph v:horizAlign="1"/><v:tabList/>rb<tspan
							class="st6">p</tspan></text>			</g>
		</g>
		<g id="group25-49" transform="translate(45.8529,-9.26432)" v:mID="25" v:groupContext="group">
			<v:userDefs>
				<v:ud v:nameU="F" v:val="VT0(1):26"/>
				<v:ud v:nameU="Format" v:val="VT0(0):26"/>
				<v:ud v:nameU="ActiveObject" v:prompt="0,0626" v:val="VT0(0):26"/>
			</v:userDefs>
			<title>Class.25</title>
			<g id="shape26-50" v:mID="26" v:groupContext="shape" transform="translate(63,0)">
				<title>工作表.26</title>
				<path d="M0 163.97 L0 115.59 L0 163.97 Z" class="st8"/>
			</g>
			<g id="shape27-53" v:mID="27" v:groupContext="shape">
				<title>工作表.27</title>
				<path d="M63 163.97 L0 163.97 L63 163.97 Z" class="st8"/>
			</g>
			<g id="shape28-56" v:mID="28" v:groupContext="shape">
				<title>工作表.28</title>
				<rect x="0" y="163.841" width="63" height="0.125" class="st8"/>
				<rect x="0" y="163.841" width="63" height="0.125" class="st2"/>
			</g>
			<g id="shape29-59" v:mID="29" v:groupContext="shape" transform="translate(0,-0.125)">
				<title>工作表.29</title>
				<rect x="0" y="130.216" width="63" height="33.75" class="st8"/>
				<rect x="0" y="130.216" width="63" height="33.75" class="st2"/>
			</g>
			<g id="shape30-62" v:mID="30" v:groupContext="shape" transform="translate(0,-33.875)">
				<title>工作表.30</title>
				<desc>rbp</desc>
				<v:userDefs>
					<v:ud v:nameU="TabSize" v:val="VT0(0.125):0"/>
				</v:userDefs>
				<v:textBlock v:margins="rect(4,4,4,4)"/>
				<v:textRect cx="31.5" cy="156.716" width="63" height="14.5"/>
				<path d="M63 163.97 L63 149.47 L0 149.47 L0 163.97 L63 163.97 ZM0 197.84 L0 149.47 L0 197.84 ZM63 149.47 L63 197.84
							 L63 149.47 Z" class="st8"/>
				<path d="M63 197.84 L63 149.47" class="st4"/>
				<path d="M0 197.84 L0 149.47" class="st4"/>
				<path d="M0 149.47 L63 149.47" class="st4"/>
				<path d="M0 163.97 L63 163.97" class="st4"/>
				<path d="M0 197.72 L63 197.72" class="st4"/>
				<path d="M0 197.84 L63 197.84" class="st4"/>
				<text x="25.71" y="159.18" class="st5" v:langID="2052"><v:paragraph v:horizAlign="1"/><v:tabList/>rb<tspan
							class="st6">p</tspan></text>			</g>
		</g>
		<g id="group32-72" transform="translate(99.8529,-45.5456)" v:mID="32" v:groupContext="group">
			<v:userDefs>
				<v:ud v:nameU="BeginAngle" v:prompt="reserved for future use" v:val="VT0(2):26"/>
				<v:ud v:nameU="EndAngle" v:prompt="reserved for future use" v:val="VT0(2):26"/>
				<v:ud v:nameU="RealBeginX" v:val="VT0(0):32"/>
				<v:ud v:nameU="RealBeginY" v:val="VT0(0):32"/>
				<v:ud v:nameU="EndX" v:val="VT0(-5.5511151231258E-017):1"/>
				<v:ud v:nameU="EndY" v:val="VT0(-0.125):1"/>
				<v:ud v:nameU="Row_7" v:val="VT0(-1):1"/>
				<v:ud v:nameU="BeginY" v:val="VT0(-0.125):1"/>
				<v:ud v:nameU="RealBeginY" v:prompt="" v:val="VT0(3.1415926535898):32"/>
				<v:ud v:nameU="EndX" v:prompt="" v:val="VT0(-0.125):1"/>
				<v:ud v:nameU="EndY" v:prompt="" v:val="VT0(0):1"/>
				<v:ud v:nameU="Row_7" v:prompt="" v:val="VT0(-0.125):1"/>
				<v:ud v:nameU="BeginY" v:prompt="" v:val="VT0(-0.67361111111123):1"/>
			</v:userDefs>
			<title>Transition, Edge</title>
			<g id="shape33-73" v:mID="33" v:groupContext="shape" transform="translate(9,271.944) rotate(180)">
				<title>Straight Edge.28</title>
				<desc>N</desc>
				<v:userDefs>
					<v:ud v:nameU="SetSize" v:val="VT0(0):26"/>
				</v:userDefs>
				<v:textBlock v:margins="rect(4,4,4,4)"/>
				<v:textRect cx="7.48817" cy="156.478" width="14.98" height="17.6036" transform="rotate(180)"/>
			</g>
			<g id="shape34-77" v:mID="34" v:groupContext="shape" transform="translate(-7.75339,8.37669)">
				<title>Straight Edge.29</title>
				<desc>N</desc>
				<v:userDefs>
					<v:ud v:nameU="SetSize" v:val="VT0(0):26"/>
				</v:userDefs>
				<v:textBlock v:margins="rect(4,4,4,4)"/>
				<v:textRect cx="8.37669" cy="155.589" width="14.98" height="17.6036"/>
			</g>
			<g id="shape32-80" v:mID="32" v:groupContext="groupContent">
				<path d="M9 163.97 L15.75 163.97 A6.75 6.75 -180 0 0 22.5 157.22 L22.5 122.22 A6.75 6.75 -180 0 0 15.75 115.47 L9
							 115.47" class="st10"/>
			</g>
		</g>
		<g id="group35-85" transform="translate(99.8529,-94.0456)" v:mID="35" v:groupContext="group">
			<v:userDefs>
				<v:ud v:nameU="BeginAngle" v:prompt="reserved for future use" v:val="VT0(2):26"/>
				<v:ud v:nameU="EndAngle" v:prompt="reserved for future use" v:val="VT0(2):26"/>
				<v:ud v:nameU="RealBeginX" v:val="VT0(0):32"/>
				<v:ud v:nameU="RealBeginY" v:val="VT0(0):32"/>
				<v:ud v:nameU="EndX" v:val="VT0(-5.5511151231258E-017):1"/>
				<v:ud v:nameU="EndY" v:val="VT0(-0.125):1"/>
				<v:ud v:nameU="Row_7" v:val="VT0(-1):1"/>
				<v:ud v:nameU="BeginY" v:val="VT0(-0.125):1"/>
				<v:ud v:nameU="RealBeginY" v:prompt="" v:val="VT0(3.1415926535898):32"/>
				<v:ud v:nameU="EndX" v:prompt="" v:val="VT0(-0.125):1"/>
				<v:ud v:nameU="EndY" v:prompt="" v:val="VT0(0):1"/>
				<v:ud v:nameU="Row_7" v:prompt="" v:val="VT0(-0.125):1"/>
				<v:ud v:nameU="BeginY" v:prompt="" v:val="VT0(-0.67361111111123):1"/>
			</v:userDefs>
			<title>Transition, Edge.35</title>
			<g id="shape36-86" v:mID="36" v:groupContext="shape" transform="translate(9,271.944) rotate(180)">
				<title>Straight Edge.28</title>
				<desc>N</desc>
				<v:userDefs>
					<v:ud v:nameU="SetSize" v:val="VT0(0):26"/>
				</v:userDefs>
				<v:textBlock v:margins="rect(4,4,4,4)"/>
				<v:textRect cx="7.48817" cy="156.478" width="14.98" height="17.6036" transform="rotate(180)"/>
			</g>
			<g id="shape37-89" v:mID="37" v:groupContext="shape" transform="translate(-5.97635,7.48817)">
				<title>Straight Edge.29</title>
				<desc>N</desc>
				<v:userDefs>
					<v:ud v:nameU="SetSize" v:val="VT0(0):26"/>
				</v:userDefs>
				<v:textBlock v:margins="rect(4,4,4,4)"/>
				<v:textRect cx="7.48817" cy="156.478" width="14.98" height="17.6036"/>
			</g>
			<g id="shape35-92" v:mID="35" v:groupContext="groupContent">
				<path d="M9 163.97 L15.75 163.97 A6.75 6.75 -180 0 0 22.5 157.22 L22.5 122.22 A6.75 6.75 -180 0 0 15.75 115.47 L9
							 115.47" class="st10"/>
			</g>
		</g>
		<g id="shape38-97" v:mID="38" v:groupContext="shape" transform="translate(43.8867,57.8268) rotate(-90)">
			<title>Duration (vertical)</title>
			<desc>main()</desc>
			<v:userDefs>
				<v:ud v:nameU="MarkSize" v:val="VT0(0.0625):26"/>
				<v:ud v:nameU="Extension_Lines" v:val="VT0(0):26"/>
			</v:userDefs>
			<v:textBlock v:margins="rect(4,4,4,4)"/>
			<v:textRect cx="22.5" cy="99.8411" width="30.93" height="17.6036" transform="rotate(90)"/>
			<path d="M0 87.47 L0 96.47 L0 87.47 ZM47.81 87.47 L47.81 96.47 L47.81 87.47 Z" class="st11"/>
			<path d="M0 91.97 L47.81 91.97" class="st12"/>
			<path d="M0 87.47 L0 96.47" class="st4"/>
			<path d="" class="st4"/>
			<path d="M47.81 87.47 L47.81 96.47" class="st4"/>
			<path d="" class="st4"/>
			<rect v:rectContext="textBkgnd" x="89.1656" y="-27.4233" width="21.3514" height="9.84705" transform="rotate(90)"
					class="st13"/>
			<text x="89.17" y="-20.04" transform="rotate(90)" class="st3" v:langID="2052"><v:paragraph v:horizAlign="1"/><v:tabList/>main(<tspan
						class="st14">)</tspan></text>		</g>
		<g id="shape40-112" v:mID="40" v:groupContext="shape" transform="translate(43.8867,105.639) rotate(-90)">
			<title>Duration (vertical).40</title>
			<desc>func1()</desc>
			<v:userDefs>
				<v:ud v:nameU="MarkSize" v:val="VT0(0.0625):26"/>
				<v:ud v:nameU="Extension_Lines" v:val="VT0(0):26"/>
			</v:userDefs>
			<v:textBlock v:margins="rect(4,4,4,4)"/>
			<v:textRect cx="24.1875" cy="100.966" width="32.95" height="17.6036" transform="rotate(90)"/>
			<path d="M0 87.47 L0 96.47 L0 87.47 ZM47.81 87.47 L47.81 96.47 L47.81 87.47 Z" class="st11"/>
			<path d="M0 91.97 L47.81 91.97" class="st12"/>
			<path d="M0 87.47 L0 96.47" class="st4"/>
			<path d="" class="st4"/>
			<path d="M47.81 87.47 L47.81 96.47" class="st4"/>
			<path d="" class="st4"/>
			<rect v:rectContext="textBkgnd" x="89.2787" y="-29.1108" width="23.3751" height="9.84705" transform="rotate(90)"
					class="st13"/>
			<text x="89.28" y="-21.73" transform="rotate(90)" class="st3" v:langID="2052"><v:paragraph v:horizAlign="1"/><v:tabList/>func1(<tspan
						class="st14">)</tspan></text>		</g>
		<g id="shape41-126" v:mID="41" v:groupContext="shape" transform="translate(43.8867,153.452) rotate(-90)">
			<title>Duration (vertical).41</title>
			<desc>func2()</desc>
			<v:userDefs>
				<v:ud v:nameU="MarkSize" v:val="VT0(0.0625):26"/>
				<v:ud v:nameU="Extension_Lines" v:val="VT0(0):26"/>
			</v:userDefs>
			<v:textBlock v:margins="rect(4,4,4,4)"/>
			<v:textRect cx="22.5" cy="100.966" width="32.95" height="17.6036" transform="rotate(90)"/>
			<path d="M0 87.47 L0 96.47 L0 87.47 ZM47.81 87.47 L47.81 96.47 L47.81 87.47 Z" class="st11"/>
			<path d="M0 91.97 L47.81 91.97" class="st12"/>
			<path d="M0 87.47 L0 96.47" class="st4"/>
			<path d="" class="st4"/>
			<path d="M47.81 87.47 L47.81 96.47" class="st4"/>
			<path d="" class="st4"/>
			<rect v:rectContext="textBkgnd" x="89.2787" y="-27.4233" width="23.3751" height="9.84705" transform="rotate(90)"
					class="st13"/>
			<text x="89.28" y="-20.04" transform="rotate(90)" class="st3" v:langID="2052"><v:paragraph v:horizAlign="1"/><v:tabList/>func2(<tspan
						class="st14">)</tspan></text>		</g>
		<g id="shape45-140" v:mID="45" v:groupContext="shape" v:layerMember="0" transform="translate(9.85289,-145.577)">
			<title>动态连接线</title>
			<desc>高地址</desc>
			<v:textBlock v:margins="rect(4,4,4,4)"/>
			<v:textRect cx="18" cy="154.966" width="40" height="18.6536"/>
			<path d="M0 155.03 L36 154.9" class="st10"/>
			<rect v:rectContext="textBkgnd" x="5.99997" y="150.108" width="23.9999" height="9.71658" class="st13"/>
			<text x="6" y="157.4" class="st15" v:langID="2052"><v:paragraph v:horizAlign="1"/><v:tabList/>高地址</text>		</g>
		<g id="shape46-147" v:mID="46" v:groupContext="shape" v:layerMember="0" transform="translate(8.72789,-18.3268)">
			<title>动态连接线.46</title>
			<desc>低地址</desc>
			<v:textBlock v:margins="rect(4,4,4,4)"/>
			<v:textRect cx="18.5625" cy="172.966" width="40" height="18.6536"/>
			<path d="M0 172.9 L37.12 173.03" class="st10"/>
			<rect v:rectContext="textBkgnd" x="6.56247" y="168.108" width="23.9999" height="9.71658" class="st13"/>
			<text x="6.56" y="175.4" class="st15" v:langID="2052"><v:paragraph v:horizAlign="1"/><v:tabList/>低地址</text>		</g>
	</g>
</svg>
